{
	"asset":{
		"generator":"Khronos glTF Blender I/O v4.0.44",
		"version":"2.0"
	},
	"scene":0,
	"scenes":[
		{
			"name":"Scene",
			"nodes":[
				0
			]
		}
	],
	"nodes":[
		{
			"mesh":0,
			"name":"Ball.002"
		}
	],
	"materials":[
		{
			"doubleSided":true,
			"name":"Tiles",
			"pbrMetallicRoughness":{
				"baseColorFactor":[
					0.800000011920929,
					0.800000011920929,
					0.800000011920929,
					1
				],
				"metallicFactor":0.9682925939559937
			}
		},
		{
			"doubleSided":true,
			"name":"Core",
			"pbrMetallicRoughness":{
				"metallicFactor":0
			}
		}
	],
	"meshes":[
		{
			"name":"Cube.004",
			"primitives":[
				{
					"attributes":{
						"POSITION":0,
						"NORMAL":1
					},
					"indices":2,
					"material":0
				},
				{
					"attributes":{
						"POSITION":3,
						"NORMAL":4
					},
					"indices":5,
					"material":1
				}
			]
		}
	],
	"accessors":[
		{
			"bufferView":0,
			"componentType":5126,
			"count":34368,
			"max":[
				1.0512303113937378,
				1.0511703491210938,
				1.0507168769836426
			],
			"min":[
				-1.0506805181503296,
				-1.0511860847473145,
				-1.0503178834915161
			],
			"type":"VEC3"
		},
		{
			"bufferView":1,
			"componentType":5126,
			"count":34368,
			"type":"VEC3"
		},
		{
			"bufferView":2,
			"componentType":5123,
			"count":51552,
			"type":"SCALAR"
		},
		{
			"bufferView":3,
			"componentType":5126,
			"count":482,
			"max":[
				1.0300171375274658,
				1.0300016403198242,
				1.0300004482269287
			],
			"min":[
				-1.0299828052520752,
				-1.0299981832504272,
				-1.0299994945526123
			],
			"type":"VEC3"
		},
		{
			"bufferView":4,
			"componentType":5126,
			"count":482,
			"type":"VEC3"
		},
		{
			"bufferView":5,
			"componentType":5123,
			"count":2880,
			"type":"SCALAR"
		}
	],
	"bufferViews":[
		{
			"buffer":0,
			"byteLength":412416,
			"byteOffset":0,
			"target":34962
		},
		{
			"buffer":0,
			"byteLength":412416,
			"byteOffset":412416,
			"target":34962
		},
		{
			"buffer":0,
			"byteLength":103104,
			"byteOffset":824832,
			"target":34963
		},
		{
			"buffer":0,
			"byteLength":5784,
			"byteOffset":927936,
			"target":34962
		},
		{
			"buffer":0,
			"byteLength":5784,
			"byteOffset":933720,
			"target":34962
		},
		{
			"buffer":0,
			"byteLength":5760,
			"byteOffset":939504,
			"target":34963
		}
	],
	"buffers":[
		{
			"byteLength":945264,
			"uri":"discoball.bin"
		}
	]
}
